STARTFONT 2.1
COMMENT
COMMENT Converted from TrueType font "cour.ttf" by "ttf2bdf.exe 2.2".
COMMENT
FONT -FreeType-Courier New-Medium-R-Normal--21-120-128-128-P-98-ISO10646-1
SIZE 12 128 128
FONTBOUNDINGBOX 15 23 -1 -6
STARTPROPERTIES 19
FOUNDRY "FreeType"
FAMILY_NAME "Courier New"
WEIGHT_NAME "Medium"
SLANT "R"
SETWIDTH_NAME "Normal"
ADD_STYLE_NAME ""
PIXEL_SIZE 21
POINT_SIZE 120
RESOLUTION_X 128
RESOLUTION_Y 128
SPACING "P"
AVERAGE_WIDTH 98
CHARSET_REGISTRY "ISO10646"
CHARSET_ENCODING "1"
FONT_ASCENT 17
FONT_DESCENT 6
COPYRIGHT "Typeface © The Monotype Corporation plc. Data © The Monotype Corporation plc/Type Solutions Inc. 1990-1994. All Rights Reserved"
_TTF_FONTFILE "cour.ttf"
_TTF_PSNAME "CourierNewPSMT"
ENDPROPERTIES
CHARS 191
STARTCHAR 0020
ENCODING 32
SWIDTH 562 0
DWIDTH 12 0
BBX 1 1 0 0
BITMAP
00
ENDCHAR
STARTCHAR 0021
ENCODING 33
SWIDTH 609 0
DWIDTH 13 0
BBX 3 13 5 0
BITMAP
40
40
40
40
40
40
40
40
40
00
00
E0
E0
ENDCHAR
STARTCHAR 0022
ENCODING 34
SWIDTH 609 0
DWIDTH 13 0
BBX 8 6 2 7
BITMAP
E7
E7
E7
42
42
42
ENDCHAR
STARTCHAR 0023
ENCODING 35
SWIDTH 609 0
DWIDTH 13 0
BBX 8 15 2 -1
BITMAP
12
12
12
24
24
FF
24
24
24
FF
24
24
48
48
48
ENDCHAR
STARTCHAR 0024
ENCODING 36
SWIDTH 609 0
DWIDTH 13 0
BBX 7 16 3 -2
BITMAP
10
10
7E
C2
80
80
60
1C
02
02
82
86
FC
10
10
10
ENDCHAR
STARTCHAR 0025
ENCODING 37
SWIDTH 609 0
DWIDTH 13 0
BBX 8 13 2 0
BITMAP
70
88
88
88
70
03
3C
C0
0E
11
11
11
0E
ENDCHAR
STARTCHAR 0026
ENCODING 38
SWIDTH 609 0
DWIDTH 13 0
BBX 8 11 3 0
BITMAP
3C
40
40
40
20
70
93
8A
8C
8C
73
ENDCHAR
STARTCHAR 0027
ENCODING 39
SWIDTH 609 0
DWIDTH 13 0
BBX 3 6 5 7
BITMAP
E0
E0
E0
40
40
40
ENDCHAR
STARTCHAR 0028
ENCODING 40
SWIDTH 609 0
DWIDTH 13 0
BBX 3 16 6 -3
BITMAP
20
20
40
40
80
80
80
80
80
80
80
80
40
40
20
20
ENDCHAR
STARTCHAR 0029
ENCODING 41
SWIDTH 609 0
DWIDTH 13 0
BBX 3 16 4 -3
BITMAP
80
80
40
40
20
20
20
20
20
20
20
20
40
40
80
80
ENDCHAR
STARTCHAR 002A
ENCODING 42
SWIDTH 609 0
DWIDTH 13 0
BBX 8 8 2 5
BITMAP
10
10
10
FF
10
18
24
42
ENDCHAR
STARTCHAR 002B
ENCODING 43
SWIDTH 609 0
DWIDTH 13 0
BBX 9 11 1 1
BITMAP
0800
0800
0800
0800
0800
FF80
0800
0800
0800
0800
0800
ENDCHAR
STARTCHAR 002C
ENCODING 44
SWIDTH 609 0
DWIDTH 13 0
BBX 4 6 3 -3
BITMAP
70
60
60
C0
C0
80
ENDCHAR
STARTCHAR 002D
ENCODING 45
SWIDTH 609 0
DWIDTH 13 0
BBX 9 1 2 5
BITMAP
FF80
ENDCHAR
STARTCHAR 002E
ENCODING 46
SWIDTH 609 0
DWIDTH 13 0
BBX 3 3 4 0
BITMAP
E0
E0
E0
ENDCHAR
STARTCHAR 002F
ENCODING 47
SWIDTH 609 0
DWIDTH 13 0
BBX 8 16 2 -2
BITMAP
01
01
02
02
04
04
08
08
10
10
20
20
40
40
80
80
ENDCHAR
STARTCHAR 0030
ENCODING 48
SWIDTH 609 0
DWIDTH 13 0
BBX 9 13 2 0
BITMAP
1E00
6100
4100
8080
8080
8080
8080
8080
8080
8080
4100
4100
3E00
ENDCHAR
STARTCHAR 0031
ENCODING 49
SWIDTH 609 0
DWIDTH 13 0
BBX 9 13 2 0
BITMAP
1800
E800
0800
0800
0800
0800
0800
0800
0800
0800
0800
0800
FF80
ENDCHAR
STARTCHAR 0032
ENCODING 50
SWIDTH 609 0
DWIDTH 13 0
BBX 8 13 2 0
BITMAP
3C
42
81
81
01
02
04
08
10
20
40
81
FF
ENDCHAR
STARTCHAR 0033
ENCODING 51
SWIDTH 609 0
DWIDTH 13 0
BBX 9 13 2 0
BITMAP
3E00
C100
0080
0080
0100
1E00
0100
0080
0080
0080
0080
8100
7E00
ENDCHAR
STARTCHAR 0034
ENCODING 52
SWIDTH 609 0
DWIDTH 13 0
BBX 8 13 2 0
BITMAP
06
0A
1A
12
22
22
42
82
FF
02
02
02
0F
ENDCHAR
STARTCHAR 0035
ENCODING 53
SWIDTH 609 0
DWIDTH 13 0
BBX 8 13 2 0
BITMAP
7E
40
40
40
5C
62
01
01
01
01
81
42
3C
ENDCHAR
STARTCHAR 0036
ENCODING 54
SWIDTH 609 0
DWIDTH 13 0
BBX 8 13 3 0
BITMAP
0F
30
40
80
80
9C
A2
C1
81
81
41
62
3C
ENDCHAR
STARTCHAR 0037
ENCODING 55
SWIDTH 609 0
DWIDTH 13 0
BBX 8 13 2 0
BITMAP
FF
81
01
02
02
02
04
04
04
08
08
08
08
ENDCHAR
STARTCHAR 0038
ENCODING 56
SWIDTH 609 0
DWIDTH 13 0
BBX 8 13 2 0
BITMAP
3C
42
81
81
81
42
3C
43
81
81
81
42
3C
ENDCHAR
STARTCHAR 0039
ENCODING 57
SWIDTH 609 0
DWIDTH 13 0
BBX 8 13 3 0
BITMAP
38
46
82
81
81
81
43
3D
01
02
02
04
F8
ENDCHAR
STARTCHAR 003A
ENCODING 58
SWIDTH 609 0
DWIDTH 13 0
BBX 3 9 4 0
BITMAP
E0
E0
E0
00
00
00
E0
E0
E0
ENDCHAR
STARTCHAR 003B
ENCODING 59
SWIDTH 609 0
DWIDTH 13 0
BBX 5 11 3 -2
BITMAP
38
38
38
00
00
00
70
60
C0
C0
80
ENDCHAR
STARTCHAR 003C
ENCODING 60
SWIDTH 609 0
DWIDTH 13 0
BBX 10 11 1 0
BITMAP
00C0
0100
0600
1800
2000
C000
2000
1800
0600
0100
00C0
ENDCHAR
STARTCHAR 003D
ENCODING 61
SWIDTH 609 0
DWIDTH 13 0
BBX 11 4 1 4
BITMAP
FFE0
0000
0000
FFE0
ENDCHAR
STARTCHAR 003E
ENCODING 62
SWIDTH 609 0
DWIDTH 13 0
BBX 10 11 1 0
BITMAP
C000
2000
1800
0600
0100
00C0
0100
0600
1800
2000
C000
ENDCHAR
STARTCHAR 003F
ENCODING 63
SWIDTH 609 0
DWIDTH 13 0
BBX 8 12 3 0
BITMAP
7C
82
81
01
01
06
18
10
00
00
38
38
ENDCHAR
STARTCHAR 0040
ENCODING 64
SWIDTH 609 0
DWIDTH 13 0
BBX 8 14 2 -1
BITMAP
3C
62
81
81
87
99
91
91
91
8F
80
80
42
3C
ENDCHAR
STARTCHAR 0041
ENCODING 65
SWIDTH 609 0
DWIDTH 13 0
BBX 14 12 -1 0
BITMAP
1F80
0280
0440
0440
0440
0820
0820
1FF0
1010
1010
2008
F83C
ENDCHAR
STARTCHAR 0042
ENCODING 66
SWIDTH 609 0
DWIDTH 13 0
BBX 10 12 1 0
BITMAP
FE00
2100
2080
2080
2100
3F00
2080
2040
2040
2040
2080
FF00
ENDCHAR
STARTCHAR 0043
ENCODING 67
SWIDTH 609 0
DWIDTH 13 0
BBX 10 12 1 0
BITMAP
1E40
21C0
4040
8040
8000
8000
8000
8000
8000
4040
2080
1F00
ENDCHAR
STARTCHAR 0044
ENCODING 68
SWIDTH 609 0
DWIDTH 13 0
BBX 11 12 1 0
BITMAP
FF00
2080
2040
2020
2020
2020
2020
2020
2020
2040
2080
FF00
ENDCHAR
STARTCHAR 0045
ENCODING 69
SWIDTH 609 0
DWIDTH 13 0
BBX 10 12 1 0
BITMAP
FFC0
2040
2040
2200
2200
3E00
2200
2200
2040
2040
2040
FFC0
ENDCHAR
STARTCHAR 0046
ENCODING 70
SWIDTH 609 0
DWIDTH 13 0
BBX 10 12 1 0
BITMAP
FFC0
2040
2040
2200
2200
3E00
2200
2200
2000
2000
2000
FE00
ENDCHAR
STARTCHAR 0047
ENCODING 71
SWIDTH 609 0
DWIDTH 13 0
BBX 12 12 1 0
BITMAP
1F40
20C0
4040
8000
8000
8000
87F0
8040
8040
4040
2040
1F80
ENDCHAR
STARTCHAR 0048
ENCODING 72
SWIDTH 609 0
DWIDTH 13 0
BBX 13 12 0 0
BITMAP
F8F8
2020
2020
2020
2020
3FE0
2020
2020
2020
2020
2020
F8F8
ENDCHAR
STARTCHAR 0049
ENCODING 73
SWIDTH 609 0
DWIDTH 13 0
BBX 9 12 2 0
BITMAP
FF80
0800
0800
0800
0800
0800
0800
0800
0800
0800
0800
FF80
ENDCHAR
STARTCHAR 004A
ENCODING 74
SWIDTH 609 0
DWIDTH 13 0
BBX 10 12 2 0
BITMAP
1FC0
0100
0100
0100
0100
0100
8100
8100
8100
8100
4200
3C00
ENDCHAR
STARTCHAR 004B
ENCODING 75
SWIDTH 609 0
DWIDTH 13 0
BBX 12 12 1 0
BITMAP
F9E0
2080
2100
2200
2400
2800
3600
2100
2080
2080
2040
F870
ENDCHAR
STARTCHAR 004C
ENCODING 76
SWIDTH 609 0
DWIDTH 13 0
BBX 10 12 2 0
BITMAP
F800
2000
2000
2000
2000
2000
2000
2040
2040
2040
2040
FFC0
ENDCHAR
STARTCHAR 004D
ENCODING 77
SWIDTH 609 0
DWIDTH 13 0
BBX 13 12 0 0
BITMAP
F078
3060
28A0
28A0
2520
2520
2220
2220
2020
2020
2020
F8F8
ENDCHAR
STARTCHAR 004E
ENCODING 78
SWIDTH 609 0
DWIDTH 13 0
BBX 13 12 0 0
BITMAP
F0F8
3020
2820
2820
2420
2220
2220
2120
2120
20A0
2060
F860
ENDCHAR
STARTCHAR 004F
ENCODING 79
SWIDTH 609 0
DWIDTH 13 0
BBX 11 12 1 0
BITMAP
1F00
2080
4040
8020
8020
8020
8020
8020
8020
4040
2080
1F00
ENDCHAR
STARTCHAR 0050
ENCODING 80
SWIDTH 609 0
DWIDTH 13 0
BBX 10 12 2 0
BITMAP
FF00
2080
2040
2040
2040
2080
3F00
2000
2000
2000
2000
FE00
ENDCHAR
STARTCHAR 0051
ENCODING 81
SWIDTH 609 0
DWIDTH 13 0
BBX 11 15 1 -3
BITMAP
1F00
2080
4040
8020
8020
8020
8020
8020
8020
4040
2080
1F00
0800
1E20
31C0
ENDCHAR
STARTCHAR 0052
ENCODING 82
SWIDTH 609 0
DWIDTH 13 0
BBX 12 12 1 0
BITMAP
FE00
2100
2080
2080
2080
2100
3E00
2100
2100
2080
2040
F870
ENDCHAR
STARTCHAR 0053
ENCODING 83
SWIDTH 609 0
DWIDTH 13 0
BBX 9 12 2 0
BITMAP
3E80
4180
8080
8080
4000
3E00
0100
0080
8080
8080
C100
BE00
ENDCHAR
STARTCHAR 0054
ENCODING 84
SWIDTH 609 0
DWIDTH 13 0
BBX 9 12 2 0
BITMAP
FF80
8880
8880
8880
8880
0800
0800
0800
0800
0800
0800
3E00
ENDCHAR
STARTCHAR 0055
ENCODING 85
SWIDTH 609 0
DWIDTH 13 0
BBX 13 12 0 0
BITMAP
F8F8
2020
2020
2020
2020
2020
2020
2020
2020
2020
1040
0F80
ENDCHAR
STARTCHAR 0056
ENCODING 86
SWIDTH 609 0
DWIDTH 13 0
BBX 12 12 0 0
BITMAP
F0F0
4020
2040
2040
2040
1080
1080
0900
0900
0900
0600
0600
ENDCHAR
STARTCHAR 0057
ENCODING 87
SWIDTH 609 0
DWIDTH 13 0
BBX 13 12 0 0
BITMAP
F078
4010
4010
4210
4220
2520
2520
2520
28A0
28A0
28A0
1040
ENDCHAR
STARTCHAR 0058
ENCODING 88
SWIDTH 609 0
DWIDTH 13 0
BBX 11 12 1 0
BITMAP
F1E0
2080
1100
1100
0A00
0400
0A00
1100
1100
2080
4040
F1E0
ENDCHAR
STARTCHAR 0059
ENCODING 89
SWIDTH 609 0
DWIDTH 13 0
BBX 11 12 1 0
BITMAP
F1E0
4040
2080
1100
0A00
0A00
0400
0400
0400
0400
0400
1F00
ENDCHAR
STARTCHAR 005A
ENCODING 90
SWIDTH 609 0
DWIDTH 13 0
BBX 9 12 2 0
BITMAP
FF80
8080
8100
8200
0400
0800
0800
1080
2080
4080
8080
FF80
ENDCHAR
STARTCHAR 005B
ENCODING 91
SWIDTH 609 0
DWIDTH 13 0
BBX 4 16 6 -3
BITMAP
F0
80
80
80
80
80
80
80
80
80
80
80
80
80
80
F0
ENDCHAR
STARTCHAR 005C
ENCODING 92
SWIDTH 609 0
DWIDTH 13 0
BBX 8 16 2 -2
BITMAP
80
80
40
40
20
20
10
10
10
08
08
04
04
02
02
01
ENDCHAR
STARTCHAR 005D
ENCODING 93
SWIDTH 609 0
DWIDTH 13 0
BBX 4 16 3 -3
BITMAP
F0
10
10
10
10
10
10
10
10
10
10
10
10
10
10
F0
ENDCHAR
STARTCHAR 005E
ENCODING 94
SWIDTH 609 0
DWIDTH 13 0
BBX 8 5 2 8
BITMAP
18
24
24
42
81
ENDCHAR
STARTCHAR 005F
ENCODING 95
SWIDTH 609 0
DWIDTH 13 0
BBX 13 1 0 -6
BITMAP
FFF8
ENDCHAR
STARTCHAR 0060
ENCODING 96
SWIDTH 609 0
DWIDTH 13 0
BBX 4 3 5 11
BITMAP
80
60
10
ENDCHAR
STARTCHAR 0061
ENCODING 97
SWIDTH 609 0
DWIDTH 13 0
BBX 10 9 2 0
BITMAP
3E00
4100
0100
3F00
4100
8100
8100
8700
79C0
ENDCHAR
STARTCHAR 0062
ENCODING 98
SWIDTH 609 0
DWIDTH 13 0
BBX 12 13 0 0
BITMAP
E000
2000
2000
2000
2780
2860
3020
2010
2010
2010
3020
2840
E780
ENDCHAR
STARTCHAR 0063
ENCODING 99
SWIDTH 609 0
DWIDTH 13 0
BBX 9 9 2 0
BITMAP
3E80
4180
8080
8000
8000
8000
8080
4100
3E00
ENDCHAR
STARTCHAR 0064
ENCODING 100
SWIDTH 609 0
DWIDTH 13 0
BBX 12 13 1 0
BITMAP
01C0
0040
0040
0040
1E40
61C0
80C0
8040
8040
8040
40C0
6140
1E70
ENDCHAR
STARTCHAR 0065
ENCODING 101
SWIDTH 609 0
DWIDTH 13 0
BBX 8 9 3 0
BITMAP
3C
42
81
81
FF
80
80
41
3E
ENDCHAR
STARTCHAR 0066
ENCODING 102
SWIDTH 609 0
DWIDTH 13 0
BBX 10 13 2 0
BITMAP
0FC0
1000
1000
1000
FF80
1000
1000
1000
1000
1000
1000
1000
7F00
ENDCHAR
STARTCHAR 0067
ENCODING 103
SWIDTH 609 0
DWIDTH 13 0
BBX 11 13 3 -4
BITMAP
3CE0
4280
8180
8080
8080
8080
8180
4380
3C80
0080
0080
0100
3E00
ENDCHAR
STARTCHAR 0068
ENCODING 104
SWIDTH 609 0
DWIDTH 13 0
BBX 12 13 1 0
BITMAP
E000
2000
2000
2000
2F00
3080
2040
2040
2040
2040
2040
2040
F9F0
ENDCHAR
STARTCHAR 0069
ENCODING 105
SWIDTH 609 0
DWIDTH 13 0
BBX 9 13 2 0
BITMAP
0800
0800
0000
0000
7800
0800
0800
0800
0800
0800
0800
0800
FF80
ENDCHAR
STARTCHAR 006A
ENCODING 106
SWIDTH 609 0
DWIDTH 13 0
BBX 7 17 2 -4
BITMAP
08
08
00
00
FE
02
02
02
02
02
02
02
02
02
02
04
F8
ENDCHAR
STARTCHAR 006B
ENCODING 107
SWIDTH 609 0
DWIDTH 13 0
BBX 10 13 2 0
BITMAP
E000
2000
2000
2000
2780
2200
2400
2800
3800
2400
2200
2100
E3C0
ENDCHAR
STARTCHAR 006C
ENCODING 108
SWIDTH 609 0
DWIDTH 13 0
BBX 9 13 2 0
BITMAP
7800
0800
0800
0800
0800
0800
0800
0800
0800
0800
0800
0800
FF80
ENDCHAR
STARTCHAR 006D
ENCODING 109
SWIDTH 609 0
DWIDTH 13 0
BBX 13 9 1 0
BITMAP
ECC0
3320
2220
2220
2220
2220
2220
2220
FBB8
ENDCHAR
STARTCHAR 006E
ENCODING 110
SWIDTH 609 0
DWIDTH 13 0
BBX 12 9 1 0
BITMAP
E700
3880
2040
2040
2040
2040
2040
2040
F9F0
ENDCHAR
STARTCHAR 006F
ENCODING 111
SWIDTH 609 0
DWIDTH 13 0
BBX 9 9 2 0
BITMAP
3E00
4100
8080
8080
8080
8080
8080
4100
3E00
ENDCHAR
STARTCHAR 0070
ENCODING 112
SWIDTH 609 0
DWIDTH 13 0
BBX 12 13 0 -4
BITMAP
E780
2840
3020
2010
2010
2010
3020
2840
2780
2000
2000
2000
F800
ENDCHAR
STARTCHAR 0071
ENCODING 113
SWIDTH 609 0
DWIDTH 13 0
BBX 10 13 3 -4
BITMAP
3DC0
4300
8100
8100
8100
8100
8100
4300
3D00
0100
0100
0100
07C0
ENDCHAR
STARTCHAR 0072
ENCODING 114
SWIDTH 609 0
DWIDTH 13 0
BBX 9 9 2 0
BITMAP
E700
2880
3000
2000
2000
2000
2000
2000
FE00
ENDCHAR
STARTCHAR 0073
ENCODING 115
SWIDTH 609 0
DWIDTH 13 0
BBX 9 9 2 0
BITMAP
7E80
8180
8080
7E00
0100
0080
8080
C100
BE00
ENDCHAR
STARTCHAR 0074
ENCODING 116
SWIDTH 609 0
DWIDTH 13 0
BBX 9 12 2 0
BITMAP
2000
2000
2000
FF00
2000
2000
2000
2000
2000
2000
2080
1F00
ENDCHAR
STARTCHAR 0075
ENCODING 117
SWIDTH 609 0
DWIDTH 13 0
BBX 12 9 1 0
BITMAP
E1C0
2040
2040
2040
2040
2040
2040
20C0
1F70
ENDCHAR
STARTCHAR 0076
ENCODING 118
SWIDTH 609 0
DWIDTH 13 0
BBX 12 9 0 0
BITMAP
F9F0
2040
1080
1080
1100
0900
0900
0600
0600
ENDCHAR
STARTCHAR 0077
ENCODING 119
SWIDTH 609 0
DWIDTH 13 0
BBX 13 9 0 0
BITMAP
F8F8
2020
2220
2220
1540
1540
1540
1540
0880
ENDCHAR
STARTCHAR 0078
ENCODING 120
SWIDTH 609 0
DWIDTH 13 0
BBX 11 9 1 0
BITMAP
F1E0
2080
1100
0A00
0400
0A00
1100
2080
F1E0
ENDCHAR
STARTCHAR 0079
ENCODING 121
SWIDTH 609 0
DWIDTH 13 0
BBX 12 13 1 -4
BITMAP
F0F0
2040
2040
1080
1080
0900
0900
0600
0600
0400
0400
0800
7E00
ENDCHAR
STARTCHAR 007A
ENCODING 122
SWIDTH 609 0
DWIDTH 13 0
BBX 8 9 2 0
BITMAP
FF
81
82
0C
10
20
41
81
FF
ENDCHAR
STARTCHAR 007B
ENCODING 123
SWIDTH 609 0
DWIDTH 13 0
BBX 5 15 4 -2
BITMAP
18
20
20
20
20
20
20
C0
20
20
20
20
20
20
18
ENDCHAR
STARTCHAR 007C
ENCODING 124
SWIDTH 609 0
DWIDTH 13 0
BBX 1 16 6 -3
BITMAP
80
80
80
80
80
80
80
80
80
80
80
80
80
80
80
80
ENDCHAR
STARTCHAR 007D
ENCODING 125
SWIDTH 609 0
DWIDTH 13 0
BBX 5 15 4 -2
BITMAP
C0
20
20
20
20
20
20
18
20
20
20
20
20
20
C0
ENDCHAR
STARTCHAR 007E
ENCODING 126
SWIDTH 609 0
DWIDTH 13 0
BBX 9 4 2 4
BITMAP
7000
5880
8D00
0700
ENDCHAR
STARTCHAR 00A0
ENCODING 160
SWIDTH 562 0
DWIDTH 12 0
BBX 1 1 0 0
BITMAP
00
ENDCHAR
STARTCHAR 00A1
ENCODING 161
SWIDTH 609 0
DWIDTH 13 0
BBX 3 13 5 -4
BITMAP
E0
E0
00
00
00
40
40
40
40
40
40
40
40
ENDCHAR
STARTCHAR 00A2
ENCODING 162
SWIDTH 609 0
DWIDTH 13 0
BBX 7 13 2 0
BITMAP
08
08
08
3E
42
80
80
80
42
3C
08
08
08
ENDCHAR
STARTCHAR 00A3
ENCODING 163
SWIDTH 609 0
DWIDTH 13 0
BBX 10 12 1 0
BITMAP
1E00
3100
2000
2000
2000
FC00
1000
1000
1000
3040
2040
FF80
ENDCHAR
STARTCHAR 00A4
ENCODING 164
SWIDTH 609 0
DWIDTH 13 0
BBX 7 7 3 3
BITMAP
BA
44
82
82
82
44
BA
ENDCHAR
STARTCHAR 00A5
ENCODING 165
SWIDTH 609 0
DWIDTH 13 0
BBX 11 12 1 0
BITMAP
F1E0
2080
2080
1100
0A00
0A00
3F80
0400
3F80
0400
0400
1F00
ENDCHAR
STARTCHAR 00A6
ENCODING 166
SWIDTH 609 0
DWIDTH 13 0
BBX 1 15 6 -2
BITMAP
80
80
80
80
80
80
00
00
00
80
80
80
80
80
80
ENDCHAR
STARTCHAR 00A7
ENCODING 167
SWIDTH 609 0
DWIDTH 13 0
BBX 10 14 1 -1
BITMAP
1F80
3080
2080
7000
8800
8600
C300
6080
3840
0C40
0380
4100
4100
7E00
ENDCHAR
STARTCHAR 00A8
ENCODING 168
SWIDTH 609 0
DWIDTH 13 0
BBX 6 2 3 11
BITMAP
CC
CC
ENDCHAR
STARTCHAR 00A9
ENCODING 169
SWIDTH 609 0
DWIDTH 13 0
BBX 13 13 0 0
BITMAP
0F80
3060
6030
4F90
9888
9008
9008
9008
8888
4710
6030
3060
0F80
ENDCHAR
STARTCHAR 00AA
ENCODING 170
SWIDTH 609 0
DWIDTH 13 0
BBX 6 6 3 7
BITMAP
70
08
78
88
98
6C
ENDCHAR
STARTCHAR 00AB
ENCODING 171
SWIDTH 609 0
DWIDTH 13 0
BBX 11 9 1 0
BITMAP
0C60
18C0
3180
6300
C600
6300
3180
18C0
0C60
ENDCHAR
STARTCHAR 00AC
ENCODING 172
SWIDTH 609 0
DWIDTH 13 0
BBX 11 6 0 1
BITMAP
FFE0
0020
0020
0020
0020
0020
ENDCHAR
STARTCHAR 00AD
ENCODING 173
SWIDTH 609 0
DWIDTH 13 0
BBX 9 1 2 5
BITMAP
FF80
ENDCHAR
STARTCHAR 00AE
ENCODING 174
SWIDTH 609 0
DWIDTH 13 0
BBX 13 13 0 0
BITMAP
0F80
3060
6030
5F90
8848
8848
8F88
8888
8848
5C70
6030
3060
0F80
ENDCHAR
STARTCHAR 00AF
ENCODING 175
SWIDTH 609 0
DWIDTH 13 0
BBX 13 1 0 14
BITMAP
FFF8
ENDCHAR
STARTCHAR 00B0
ENCODING 176
SWIDTH 609 0
DWIDTH 13 0
BBX 6 6 4 9
BITMAP
78
84
84
84
84
78
ENDCHAR
STARTCHAR 00B1
ENCODING 177
SWIDTH 609 0
DWIDTH 13 0
BBX 9 13 1 0
BITMAP
0800
0800
0800
0800
0800
FF80
0800
0800
0800
0800
0800
0000
FF80
ENDCHAR
STARTCHAR 00B2
ENCODING 178
SWIDTH 609 0
DWIDTH 13 0
BBX 6 7 3 6
BITMAP
78
84
04
08
30
40
FC
ENDCHAR
STARTCHAR 00B3
ENCODING 179
SWIDTH 609 0
DWIDTH 13 0
BBX 6 7 3 6
BITMAP
78
84
04
18
04
84
78
ENDCHAR
STARTCHAR 00B4
ENCODING 180
SWIDTH 609 0
DWIDTH 13 0
BBX 4 3 5 11
BITMAP
10
60
80
ENDCHAR
STARTCHAR 00B5
ENCODING 181
SWIDTH 609 0
DWIDTH 13 0
BBX 12 13 1 -4
BITMAP
E1C0
2040
2040
2040
2040
2040
2040
31C0
3E70
2000
2000
2000
2000
ENDCHAR
STARTCHAR 00B6
ENCODING 182
SWIDTH 609 0
DWIDTH 13 0
BBX 10 14 2 -1
BITMAP
3FC0
4900
8900
8900
8900
4900
3900
0900
0900
0900
0900
0900
0900
79C0
ENDCHAR
STARTCHAR 00B7
ENCODING 183
SWIDTH 609 0
DWIDTH 13 0
BBX 3 3 4 5
BITMAP
E0
E0
E0
ENDCHAR
STARTCHAR 00B8
ENCODING 184
SWIDTH 609 0
DWIDTH 13 0
BBX 4 4 4 -4
BITMAP
20
30
10
F0
ENDCHAR
STARTCHAR 00B9
ENCODING 185
SWIDTH 609 0
DWIDTH 13 0
BBX 5 7 4 6
BITMAP
20
E0
20
20
20
20
F8
ENDCHAR
STARTCHAR 00BA
ENCODING 186
SWIDTH 609 0
DWIDTH 13 0
BBX 6 6 3 7
BITMAP
78
84
84
84
84
78
ENDCHAR
STARTCHAR 00BB
ENCODING 187
SWIDTH 609 0
DWIDTH 13 0
BBX 10 9 2 0
BITMAP
8400
C600
6300
3180
18C0
3180
6300
C600
8400
ENDCHAR
STARTCHAR 00BC
ENCODING 188
SWIDTH 609 0
DWIDTH 13 0
BBX 13 13 0 0
BITMAP
2000
E000
2000
2008
2030
2040
F990
0630
0850
3090
00F8
0010
0038
ENDCHAR
STARTCHAR 00BD
ENCODING 189
SWIDTH 609 0
DWIDTH 13 0
BBX 13 13 0 0
BITMAP
2000
E000
2000
2010
2060
2080
FB70
0488
1808
2010
0020
0040
00F8
ENDCHAR
STARTCHAR 00BE
ENCODING 190
SWIDTH 609 0
DWIDTH 13 0
BBX 13 13 0 0
BITMAP
7000
8800
0800
3008
0830
88C0
7110
0630
1850
2090
00F8
0010
0038
ENDCHAR
STARTCHAR 00BF
ENCODING 191
SWIDTH 609 0
DWIDTH 13 0
BBX 8 13 2 -4
BITMAP
1C
1C
00
00
00
08
18
60
80
80
81
41
3E
ENDCHAR
STARTCHAR 00C0
ENCODING 192
SWIDTH 609 0
DWIDTH 13 0
BBX 14 16 -1 0
BITMAP
0400
0300
0080
0000
1F80
0280
0440
0440
0440
0820
0820
1FF0
1010
1010
2008
F83C
ENDCHAR
STARTCHAR 00C1
ENCODING 193
SWIDTH 609 0
DWIDTH 13 0
BBX 14 16 -1 0
BITMAP
0020
00C0
0100
0000
1F80
0280
0440
0440
0440
0820
0820
1FF0
1010
1010
2008
F83C
ENDCHAR
STARTCHAR 00C2
ENCODING 194
SWIDTH 609 0
DWIDTH 13 0
BBX 14 16 -1 0
BITMAP
0100
0280
0440
0000
1F80
0280
0440
0440
0440
0820
0820
1FF0
1010
1010
2008
F83C
ENDCHAR
STARTCHAR 00C3
ENCODING 195
SWIDTH 609 0
DWIDTH 13 0
BBX 14 15 -1 0
BITMAP
0640
0980
0000
1F80
0280
0440
0440
0440
0820
0820
1FF0
1010
1010
2008
F83C
ENDCHAR
STARTCHAR 00C4
ENCODING 196
SWIDTH 609 0
DWIDTH 13 0
BBX 14 15 -1 0
BITMAP
0CC0
0CC0
0000
1F80
0280
0440
0440
0440
0820
0820
1FF0
1010
1010
2008
F83C
ENDCHAR
STARTCHAR 00C5
ENCODING 197
SWIDTH 609 0
DWIDTH 13 0
BBX 14 17 -1 0
BITMAP
0300
0480
0480
0300
0000
1F80
0280
0440
0440
0440
0820
0820
1FF0
1010
1010
2008
F83C
ENDCHAR
STARTCHAR 00C6
ENCODING 198
SWIDTH 609 0
DWIDTH 13 0
BBX 13 12 0 0
BITMAP
1FF8
0608
0608
0A88
0A80
0B80
1280
1E80
1200
2208
2208
FFF8
ENDCHAR
STARTCHAR 00C7
ENCODING 199
SWIDTH 609 0
DWIDTH 13 0
BBX 10 16 1 -4
BITMAP
1E40
21C0
4040
8040
8000
8000
8000
8000
8000
4040
2080
1F00
0400
0600
0200
1E00
ENDCHAR
STARTCHAR 00C8
ENCODING 200
SWIDTH 609 0
DWIDTH 13 0
BBX 10 16 1 0
BITMAP
1000
0C00
0200
0000
FFC0
2040
2040
2200
2200
3E00
2200
2200
2040
2040
2040
FFC0
ENDCHAR
STARTCHAR 00C9
ENCODING 201
SWIDTH 609 0
DWIDTH 13 0
BBX 10 16 1 0
BITMAP
0100
0600
0800
0000
FFC0
2040
2040
2200
2200
3E00
2200
2200
2040
2040
2040
FFC0
ENDCHAR
STARTCHAR 00CA
ENCODING 202
SWIDTH 609 0
DWIDTH 13 0
BBX 10 16 1 0
BITMAP
0400
0A00
1100
0000
FFC0
2040
2040
2200
2200
3E00
2200
2200
2040
2040
2040
FFC0
ENDCHAR
STARTCHAR 00CB
ENCODING 203
SWIDTH 609 0
DWIDTH 13 0
BBX 10 15 1 0
BITMAP
1980
1980
0000
FFC0
2040
2040
2200
2200
3E00
2200
2200
2040
2040
2040
FFC0
ENDCHAR
STARTCHAR 00CC
ENCODING 204
SWIDTH 609 0
DWIDTH 13 0
BBX 9 16 2 0
BITMAP
1000
0C00
0200
0000
FF80
0800
0800
0800
0800
0800
0800
0800
0800
0800
0800
FF80
ENDCHAR
STARTCHAR 00CD
ENCODING 205
SWIDTH 609 0
DWIDTH 13 0
BBX 9 16 2 0
BITMAP
0200
0C00
1000
0000
FF80
0800
0800
0800
0800
0800
0800
0800
0800
0800
0800
FF80
ENDCHAR
STARTCHAR 00CE
ENCODING 206
SWIDTH 609 0
DWIDTH 13 0
BBX 9 16 2 0
BITMAP
0800
1400
2200
0000
FF80
0800
0800
0800
0800
0800
0800
0800
0800
0800
0800
FF80
ENDCHAR
STARTCHAR 00CF
ENCODING 207
SWIDTH 609 0
DWIDTH 13 0
BBX 9 15 2 0
BITMAP
3300
3300
0000
FF80
0800
0800
0800
0800
0800
0800
0800
0800
0800
0800
FF80
ENDCHAR
STARTCHAR 00D0
ENCODING 208
SWIDTH 609 0
DWIDTH 13 0
BBX 11 12 1 0
BITMAP
FF00
2080
2040
2020
2020
FE20
2020
2020
2020
2040
2080
FF00
ENDCHAR
STARTCHAR 00D1
ENCODING 209
SWIDTH 609 0
DWIDTH 13 0
BBX 13 15 0 0
BITMAP
0C80
1300
0000
F0F8
3020
2820
2820
2420
2220
2220
2120
2120
20A0
2060
F860
ENDCHAR
STARTCHAR 00D2
ENCODING 210
SWIDTH 609 0
DWIDTH 13 0
BBX 11 17 1 0
BITMAP
0800
0600
0100
0000
0000
1F00
2080
4040
8020
8020
8020
8020
8020
8020
4040
2080
1F00
ENDCHAR
STARTCHAR 00D3
ENCODING 211
SWIDTH 609 0
DWIDTH 13 0
BBX 11 16 1 0
BITMAP
0100
0600
0800
0000
1F00
2080
4040
8020
8020
8020
8020
8020
8020
4040
2080
1F00
ENDCHAR
STARTCHAR 00D4
ENCODING 212
SWIDTH 609 0
DWIDTH 13 0
BBX 11 16 1 0
BITMAP
0400
0A00
1100
0000
1F00
2080
4040
8020
8020
8020
8020
8020
8020
4040
2080
1F00
ENDCHAR
STARTCHAR 00D5
ENCODING 213
SWIDTH 609 0
DWIDTH 13 0
BBX 11 15 1 0
BITMAP
0C80
1300
0000
1F00
2080
4040
8020
8020
8020
8020
8020
8020
4040
2080
1F00
ENDCHAR
STARTCHAR 00D6
ENCODING 214
SWIDTH 609 0
DWIDTH 13 0
BBX 11 15 1 0
BITMAP
1980
1980
0000
1F00
2080
4040
8020
8020
8020
8020
8020
8020
4040
2080
1F00
ENDCHAR
STARTCHAR 00D7
ENCODING 215
SWIDTH 609 0
DWIDTH 13 0
BBX 6 6 3 3
BITMAP
84
48
30
30
48
84
ENDCHAR
STARTCHAR 00D8
ENCODING 216
SWIDTH 609 0
DWIDTH 13 0
BBX 11 14 1 -1
BITMAP
0020
1F40
2080
40C0
C120
8220
8420
8820
8820
D040
6040
6180
9F00
8000
ENDCHAR
STARTCHAR 00D9
ENCODING 217
SWIDTH 609 0
DWIDTH 13 0
BBX 13 16 0 0
BITMAP
0400
0300
0080
0000
F8F8
2020
2020
2020
2020
2020
2020
2020
2020
2020
1040
0F80
ENDCHAR
STARTCHAR 00DA
ENCODING 218
SWIDTH 609 0
DWIDTH 13 0
BBX 13 16 0 0
BITMAP
0080
0300
0400
0000
F8F8
2020
2020
2020
2020
2020
2020
2020
2020
2020
1040
0F80
ENDCHAR
STARTCHAR 00DB
ENCODING 219
SWIDTH 609 0
DWIDTH 13 0
BBX 13 16 0 0
BITMAP
0200
0500
0880
0000
F8F8
2020
2020
2020
2020
2020
2020
2020
2020
2020
1040
0F80
ENDCHAR
STARTCHAR 00DC
ENCODING 220
SWIDTH 609 0
DWIDTH 13 0
BBX 13 15 0 0
BITMAP
0CC0
0CC0
0000
F8F8
2020
2020
2020
2020
2020
2020
2020
2020
2020
1040
0F80
ENDCHAR
STARTCHAR 00DD
ENCODING 221
SWIDTH 609 0
DWIDTH 13 0
BBX 11 16 1 0
BITMAP
0100
0600
0800
0000
F1E0
4040
2080
1100
0A00
0A00
0400
0400
0400
0400
0400
1F00
ENDCHAR
STARTCHAR 00DE
ENCODING 222
SWIDTH 609 0
DWIDTH 13 0
BBX 10 12 2 0
BITMAP
FE00
2000
2000
3F00
2080
2040
2040
2080
3F00
2000
2000
FE00
ENDCHAR
STARTCHAR 00DF
ENCODING 223
SWIDTH 609 0
DWIDTH 13 0
BBX 10 13 1 0
BITMAP
1E00
3100
2100
2100
2100
2600
2180
20C0
2040
2040
2440
2440
FB80
ENDCHAR
STARTCHAR 00E0
ENCODING 224
SWIDTH 609 0
DWIDTH 13 0
BBX 10 13 2 0
BITMAP
2000
1800
0400
0000
3E00
4100
0100
3F00
4100
8100
8100
8700
79C0
ENDCHAR
STARTCHAR 00E1
ENCODING 225
SWIDTH 609 0
DWIDTH 13 0
BBX 10 13 2 0
BITMAP
0200
0C00
1000
0000
3E00
4100
0100
3F00
4100
8100
8100
8700
79C0
ENDCHAR
STARTCHAR 00E2
ENCODING 226
SWIDTH 609 0
DWIDTH 13 0
BBX 10 13 2 0
BITMAP
0800
1400
2200
0000
3E00
4100
0100
3F00
4100
8100
8100
8700
79C0
ENDCHAR
STARTCHAR 00E3
ENCODING 227
SWIDTH 609 0
DWIDTH 13 0
BBX 10 12 2 0
BITMAP
3200
4C00
0000
3E00
4100
0100
3F00
4100
8100
8100
8700
79C0
ENDCHAR
STARTCHAR 00E4
ENCODING 228
SWIDTH 609 0
DWIDTH 13 0
BBX 10 12 2 0
BITMAP
3300
3300
0000
3E00
4100
0100
3F00
4100
8100
8100
8700
79C0
ENDCHAR
STARTCHAR 00E5
ENCODING 229
SWIDTH 609 0
DWIDTH 13 0
BBX 10 14 2 0
BITMAP
0C00
1200
1200
0C00
0000
3E00
4100
0100
3F00
4100
8100
8100
8700
79C0
ENDCHAR
STARTCHAR 00E6
ENCODING 230
SWIDTH 609 0
DWIDTH 13 0
BBX 12 9 0 0
BITMAP
38C0
0520
0210
3FF0
C200
8200
8200
4710
3AE0
ENDCHAR
STARTCHAR 00E7
ENCODING 231
SWIDTH 609 0
DWIDTH 13 0
BBX 9 13 2 -4
BITMAP
3E80
4180
8080
8000
8000
8000
8080
4100
3E00
0800
0C00
0400
3C00
ENDCHAR
STARTCHAR 00E8
ENCODING 232
SWIDTH 609 0
DWIDTH 13 0
BBX 8 13 3 0
BITMAP
20
18
04
00
3C
42
81
81
FF
80
80
41
3E
ENDCHAR
STARTCHAR 00E9
ENCODING 233
SWIDTH 609 0
DWIDTH 13 0
BBX 8 13 3 0
BITMAP
04
18
20
00
3C
42
81
81
FF
80
80
41
3E
ENDCHAR
STARTCHAR 00EA
ENCODING 234
SWIDTH 609 0
DWIDTH 13 0
BBX 8 13 3 0
BITMAP
08
14
22
00
3C
42
81
81
FF
80
80
41
3E
ENDCHAR
STARTCHAR 00EB
ENCODING 235
SWIDTH 609 0
DWIDTH 13 0
BBX 8 12 3 0
BITMAP
33
33
00
3C
42
81
81
FF
80
80
41
3E
ENDCHAR
STARTCHAR 00EC
ENCODING 236
SWIDTH 609 0
DWIDTH 13 0
BBX 9 13 2 0
BITMAP
4000
3000
0800
0000
7800
0800
0800
0800
0800
0800
0800
0800
FF80
ENDCHAR
STARTCHAR 00ED
ENCODING 237
SWIDTH 609 0
DWIDTH 13 0
BBX 9 13 2 0
BITMAP
0400
1800
2000
0000
7800
0800
0800
0800
0800
0800
0800
0800
FF80
ENDCHAR
STARTCHAR 00EE
ENCODING 238
SWIDTH 609 0
DWIDTH 13 0
BBX 9 13 2 0
BITMAP
1000
2800
4400
0000
7800
0800
0800
0800
0800
0800
0800
0800
FF80
ENDCHAR
STARTCHAR 00EF
ENCODING 239
SWIDTH 609 0
DWIDTH 13 0
BBX 9 12 2 0
BITMAP
6600
6600
0000
7800
0800
0800
0800
0800
0800
0800
0800
FF80
ENDCHAR
STARTCHAR 00F0
ENCODING 240
SWIDTH 609 0
DWIDTH 13 0
BBX 9 13 2 0
BITMAP
3B00
1C00
6200
0100
3D00
4380
8180
8080
8080
8080
C100
6300
3E00
ENDCHAR
STARTCHAR 00F1
ENCODING 241
SWIDTH 609 0
DWIDTH 13 0
BBX 12 12 1 0
BITMAP
0C80
1300
0000
E700
3880
2040
2040
2040
2040
2040
2040
F9F0
ENDCHAR
STARTCHAR 00F2
ENCODING 242
SWIDTH 609 0
DWIDTH 13 0
BBX 9 13 2 0
BITMAP
2000
1800
0400
0000
3E00
4100
8080
8080
8080
8080
8080
4100
3E00
ENDCHAR
STARTCHAR 00F3
ENCODING 243
SWIDTH 609 0
DWIDTH 13 0
BBX 9 13 2 0
BITMAP
0200
0C00
1000
0000
3E00
4100
8080
8080
8080
8080
8080
4100
3E00
ENDCHAR
STARTCHAR 00F4
ENCODING 244
SWIDTH 609 0
DWIDTH 13 0
BBX 9 13 2 0
BITMAP
0800
1400
2200
0000
3E00
4100
8080
8080
8080
8080
8080
4100
3E00
ENDCHAR
STARTCHAR 00F5
ENCODING 245
SWIDTH 609 0
DWIDTH 13 0
BBX 9 12 2 0
BITMAP
3200
4C00
0000
3E00
4100
8080
8080
8080
8080
8080
4100
3E00
ENDCHAR
STARTCHAR 00F6
ENCODING 246
SWIDTH 609 0
DWIDTH 13 0
BBX 9 12 2 0
BITMAP
3300
3300
0000
3E00
4100
8080
8080
8080
8080
8080
4100
3E00
ENDCHAR
STARTCHAR 00F7
ENCODING 247
SWIDTH 609 0
DWIDTH 13 0
BBX 10 11 1 1
BITMAP
0C00
0C00
0000
0000
0000
FFC0
0000
0000
0000
0C00
0C00
ENDCHAR
STARTCHAR 00F8
ENCODING 248
SWIDTH 609 0
DWIDTH 13 0
BBX 10 9 2 0
BITMAP
1E40
6180
C180
8240
8C40
9840
60C0
6180
9E00
ENDCHAR
STARTCHAR 00F9
ENCODING 249
SWIDTH 609 0
DWIDTH 13 0
BBX 12 13 1 0
BITMAP
1000
0C00
0200
0000
E1C0
2040
2040
2040
2040
2040
2040
20C0
1F70
ENDCHAR
STARTCHAR 00FA
ENCODING 250
SWIDTH 609 0
DWIDTH 13 0
BBX 12 13 1 0
BITMAP
0080
0300
0400
0000
E1C0
2040
2040
2040
2040
2040
2040
20C0
1F70
ENDCHAR
STARTCHAR 00FB
ENCODING 251
SWIDTH 609 0
DWIDTH 13 0
BBX 12 13 1 0
BITMAP
0400
0A00
1100
0000
E1C0
2040
2040
2040
2040
2040
2040
20C0
1F70
ENDCHAR
STARTCHAR 00FC
ENCODING 252
SWIDTH 609 0
DWIDTH 13 0
BBX 12 12 1 0
BITMAP
1980
1980
0000
E1C0
2040
2040
2040
2040
2040
2040
20C0
1F70
ENDCHAR
STARTCHAR 00FD
ENCODING 253
SWIDTH 609 0
DWIDTH 13 0
BBX 12 17 1 -4
BITMAP
0080
0300
0400
0000
F0F0
2040
2040
1080
1080
0900
0900
0600
0600
0400
0400
0800
7E00
ENDCHAR
STARTCHAR 00FE
ENCODING 254
SWIDTH 609 0
DWIDTH 13 0
BBX 11 17 0 -4
BITMAP
E000
2000
2000
2000
2780
38C0
3060
2020
2020
2020
3060
38C0
2780
2000
2000
2000
F800
ENDCHAR
STARTCHAR 00FF
ENCODING 255
SWIDTH 609 0
DWIDTH 13 0
BBX 12 16 1 -4
BITMAP
0CC0
0CC0
0000
F0F0
2040
2040
1080
1080
0900
0900
0600
0600
0400
0400
0800
7E00
ENDCHAR
ENDFONT
